<svg height="512pt" viewBox="-1 0 512 512" width="512pt" xmlns="http://www.w3.org/2000/svg"><path d="m54.023438 169.457031h17.621093v7.984375c0 2.40625 2.9375 3.613282 5.875 3.613282s5.875-1.207032 5.875-3.613282v-7.984375h3.238281c1.804688 0 3.613282-2.710937 3.613282-5.421875 0-2.710937-1.203125-5.421875-3.613282-5.421875h-3.238281v-5.273437c0-2.484375-2.9375-3.539063-5.875-3.539063s-5.875 1.054688-5.875 3.539063v5.273437h-6.476562l13.332031-26.734375c.226562-.527344.375-.980468.375-1.433594 0-2.710937-3.839844-4.441406-5.875-4.441406-1.878906 0-3.761719.828125-4.894531 3.011719l-17.394531 34.113281c-.453126.828125-.601563 1.660156-.601563 2.261719 0 2.636719 1.730469 4.066406 3.914063 4.066406zm0 0"/><path d="m111.410156 181.507812c10.394532 0 18.527344-4.820312 18.527344-17.773437v-19.957031c0-12.957032-8.132812-17.773438-18.527344-17.773438-10.390625 0-18.449218 4.816406-18.449218 17.773438v19.957031c0 12.953125 8.058593 17.773437 18.449218 17.773437zm-6.703125-37.730468c0-5.199219 2.488281-7.53125 6.703125-7.53125 4.21875 0 6.777344 2.335937 6.777344 7.53125v19.957031c0 5.195313-2.558594 7.53125-6.777344 7.53125-4.214844 0-6.703125-2.335937-6.703125-7.53125zm0 0"/><path d="m136.414062 169.457031h17.625v7.984375c0 2.40625 2.9375 3.613282 5.871094 3.613282 2.9375 0 5.875-1.207032 5.875-3.613282v-7.984375h3.238282c1.808593 0 3.617187-2.710937 3.617187-5.421875 0-2.710937-1.207031-5.421875-3.617187-5.421875h-3.238282v-5.273437c0-2.484375-2.9375-3.539063-5.875-3.539063s-5.871094 1.054688-5.871094 3.539063v5.273437h-6.476562l13.328125-26.734375c.226563-.527344.375-.980468.375-1.433594 0-2.710937-3.839844-4.441406-5.871094-4.441406-1.882812 0-3.765625.828125-4.894531 3.011719l-17.398438 34.113281c-.449218.828125-.601562 1.660156-.601562 2.261719 0 2.636719 1.730469 4.066406 3.914062 4.066406zm0 0"/><path d="m56.523438 221.136719h21.8125c4.136718 0 7.492187-3.355469 7.492187-7.492188 0-4.140625-3.355469-7.492187-7.492187-7.492187h-21.8125c-4.136719 0-7.492188 3.351562-7.492188 7.492187 0 4.136719 3.355469 7.492188 7.492188 7.492188zm0 0"/><path d="m235.824219 206.148438h-133.066407c-4.136718 0-7.492187 3.355468-7.492187 7.496093 0 4.136719 3.355469 7.492188 7.492187 7.492188h133.066407c4.140625 0 7.492187-3.355469 7.492187-7.492188 0-4.140625-3.351562-7.496093-7.492187-7.496093zm0 0"/><path d="m215.613281 245.003906h-48.664062c-4.140625 0-7.496094 3.351563-7.496094 7.492188 0 4.136718 3.355469 7.492187 7.496094 7.492187h48.664062c4.136719 0 7.492188-3.355469 7.492188-7.492187 0-4.140625-3.355469-7.492188-7.492188-7.492188zm0 0"/><path d="m141.5 245.003906h-15.167969c-4.140625 0-7.496093 3.351563-7.496093 7.492188 0 4.136718 3.355468 7.492187 7.496093 7.492187h15.167969c4.136719 0 7.492188-3.355469 7.492188-7.492187 0-4.140625-3.355469-7.492188-7.492188-7.492188zm0 0"/><path d="m101.917969 245.003906h-45.394531c-4.136719 0-7.492188 3.351563-7.492188 7.492188 0 4.136718 3.355469 7.492187 7.492188 7.492187h45.394531c4.136719 0 7.492187-3.355469 7.492187-7.492187 0-4.140625-3.355468-7.492188-7.492187-7.492188zm0 0"/><path d="m45.207031 24.984375c-12.136719 0-22.011719 9.875-22.011719 22.011719 0 12.140625 9.875 22.011718 22.011719 22.011718s22.011719-9.875 22.011719-22.011718c0-12.136719-9.875-22.011719-22.011719-22.011719zm0 29.039063c-3.875 0-7.023437-3.152344-7.023437-7.027344 0-3.871094 3.148437-7.023438 7.023437-7.023438s7.023438 3.152344 7.023438 7.023438c0 3.875-3.148438 7.027344-7.023438 7.027344zm0 0"/><path d="m101.277344 24.984375c-12.136719 0-22.011719 9.875-22.011719 22.011719 0 12.140625 9.875 22.015625 22.011719 22.015625 12.136718 0 22.011718-9.875 22.011718-22.015625 0-12.136719-9.875-22.011719-22.011718-22.011719zm0 29.039063c-3.875 0-7.027344-3.152344-7.027344-7.027344 0-3.871094 3.152344-7.023438 7.027344-7.023438s7.023437 3.152344 7.023437 7.023438c0 3.875-3.152343 7.027344-7.023437 7.027344zm0 0"/><path d="m157.347656 24.984375c-12.136718 0-22.011718 9.875-22.011718 22.011719 0 12.140625 9.871093 22.015625 22.011718 22.015625 12.136719 0 22.011719-9.875 22.011719-22.015625 0-12.136719-9.875-22.011719-22.011719-22.011719zm0 29.039063c-3.875 0-7.027344-3.152344-7.027344-7.027344 0-3.871094 3.152344-7.023438 7.027344-7.023438 3.871094 0 7.023438 3.152344 7.023438 7.023438 0 3.875-3.152344 7.027344-7.023438 7.027344zm0 0"/><path d="m510.671875 411.914062c-2.265625-22.246093-12.664063-42.8125-29.28125-57.910156-4.714844-4.285156-9.835937-8.007812-15.253906-11.175781v-312.175781c0-16.902344-13.75-30.652344-30.648438-30.652344h-404.835937c-16.902344 0-30.652344 13.75-30.652344 30.652344v141.269531c0 4.140625 3.355469 7.492187 7.492188 7.492187 4.140624 0 7.492187-3.351562 7.492187-7.492187v-77.925781h436.167969v241.820312c-9.785156-3.523437-20.179688-5.390625-30.792969-5.390625-50.0625 0-90.789063 40.726563-90.789063 90.789063 0 10.484375 1.792969 20.558594 5.078126 29.941406h-303.996094c-8.640625 0-15.667969-7.027344-15.667969-15.667969v-217.277343c0-4.136719-3.351563-7.492188-7.492187-7.492188-4.136719 0-7.492188 3.355469-7.492188 7.492188v217.277343c0 16.902344 13.75 30.652344 30.652344 30.652344h310.835937c15.652344 27.371094 45.140625 45.859375 78.867188 45.859375 34.503906 0 65.585937-19.152344 81.121093-49.980469 1.863282-3.695312.375-8.199219-3.320312-10.0625-3.695312-1.859375-8.199219-.375-10.0625 3.320313-12.976562 25.742187-38.929688 41.738281-67.738281 41.738281-41.796875 0-75.800781-34.003906-75.800781-75.800781s34.003906-75.800782 75.800781-75.800782c39.039062 0 71.457031 29.242188 75.410156 68.019532.417969 4.117187 4.101563 7.113281 8.210937 6.695312 4.117188-.421875 7.113282-4.097656 6.695313-8.214844zm-59.519531-332.90625h-436.167969v-48.355468c0-8.636719 7.027344-15.667969 15.667969-15.667969h404.835937c8.636719 0 15.664063 7.03125 15.664063 15.667969zm0 0"/><path d="m477.320312 396.4375c0-3.871094-1.507812-7.511719-4.246093-10.253906l-17.6875-17.6875c-5.652344-5.648438-14.847657-5.648438-20.5.003906l-14.53125 14.527344-14.527344-14.53125c-5.652344-5.648438-14.847656-5.648438-20.5 0l-17.691406 17.691406c-2.738281 2.738281-4.242188 6.378906-4.242188 10.25s1.507813 7.511719 4.246094 10.25l14.527344 14.527344-14.53125 14.53125c-5.652344 5.648437-5.652344 14.847656.003906 20.5l17.6875 17.6875c2.738281 2.738281 6.378906 4.246094 10.25 4.246094s7.511719-1.507813 10.25-4.246094l14.527344-14.527344 14.527343 14.527344c2.738282 2.738281 6.378907 4.246094 10.253907 4.246094 3.871093 0 7.511719-1.507813 10.25-4.246094l17.6875-17.6875c5.652343-5.652344 5.652343-14.851563 0-20.503906l-14.527344-14.527344 14.527344-14.527344c2.738281-2.738281 4.246093-6.378906 4.246093-10.25zm-34.667968 19.480469c-1.40625 1.40625-2.195313 3.3125-2.195313 5.296875 0 1.988281.789063 3.894531 2.195313 5.300781l19.480468 19.480469-16.996093 16.996094-19.480469-19.484376c-2.925781-2.921874-7.671875-2.921874-10.597656 0l-19.480469 19.484376-16.996094-16.996094 19.480469-19.480469c1.40625-1.40625 2.195312-3.3125 2.195312-5.300781 0-1.988282-.789062-3.890625-2.195312-5.296875l-19.480469-19.480469 16.996094-16.996094 19.484375 19.480469c1.40625 1.40625 3.308594 2.195313 5.296875 2.195313s3.894531-.789063 5.300781-2.195313l19.480469-19.480469 16.996094 16.996094zm0 0"/></svg>