<?xml version="1.0" encoding="iso-8859-1"?>
<!-- Generator: Adobe Illustrator 19.0.0, SVG Export Plug-In . SVG Version: 6.00 Build 0)  -->
<svg version="1.1" id="Capa_1" xmlns="http://www.w3.org/2000/svg" xmlns:xlink="http://www.w3.org/1999/xlink" x="0px" y="0px"
	 viewBox="0 0 512 512" style="enable-background:new 0 0 512 512;" xml:space="preserve">
<g>
	<g>
		<path d="M412.907,214.08C398.4,140.693,333.653,85.333,256,85.333c-61.653,0-114.987,34.987-141.76,86.08
			C50.027,178.24,0,232.64,0,298.667c0,70.72,57.28,128,128,128h277.333C464.213,426.667,512,378.88,512,320
			C512,263.68,468.267,218.027,412.907,214.08z M405.333,384H128c-47.04,0-85.333-38.293-85.333-85.333
			c0-47.04,38.293-85.333,85.333-85.333s85.333,38.293,85.333,85.333H256c0-58.88-39.787-108.267-93.867-123.2
			C183.573,146.773,217.6,128,256,128c64.747,0,117.333,52.587,117.333,117.333V256h32c35.307,0,64,28.693,64,64
			S440.64,384,405.333,384z"/>
	</g>
</g>
<g>
</g>
<g>
</g>
<g>
</g>
<g>
</g>
<g>
</g>
<g>
</g>
<g>
</g>
<g>
</g>
<g>
</g>
<g>
</g>
<g>
</g>
<g>
</g>
<g>
</g>
<g>
</g>
<g>
</g>
</svg>
